<?xml version="1.0" encoding="UTF-8"?>
<svg version="1.1" viewBox="0 0 1600 416" width="1000" height="280" xmlns="http://www.w3.org/2000/svg">
<path transform="translate(983 153)" d="m0 0c4.31 4.06 7.57 8.74 10.7 13.8 0.39 0.62 0.78 1.25 1.18 1.89 4.88 8.73 7.44 20.2 7.82 30.1 0.06 1.57 0.06 1.57 0.12 3.16 0.35 18.8-3.2 38.9-16.4 53.2-15 13.8-31.4 15.6-51 14.8-12.3-0.85-23.8-7.19-32.2-16.2-13.5-16.6-17-37.2-15.2-58 2.47-18.2 8.82-33.4 23.4-45.3 20.6-14.4 52-13.3 71.5 2.56zm-56.8 20.5c-6.6 9.85-7.88 20.4-7.81 32 0 1.07 0.01 2.13 0.01 3.22 0.2 12.5 2.23 23.5 11.1 32.8 5.09 4.33 10.6 5.97 17.2 6.12 7.49-0.89 13.2-4.25 18-10 9.37-14.6 9.43-33.5 6-50-2-8.18-5.43-14.6-12-20-11-6.1-24.7-4.09-32.5 5.76z" fill="#000001"/>
<path transform="translate(158,255)" d="m0 0c1.2 0.46 1.2 0.46 2.42 0.92 12.6 5.54 22.7 16.6 27.8 29.2 5.41 15.5 5.08 31-1.89 46.1-3.27 6.08-7.48 10.9-12.4 15.8-0.59 0.59-1.18 1.17-1.78 1.78-10.8 9.98-25 13-39.3 12.5-15.9-1.15-28.2-8.49-38.7-20.3-11-13.9-12.5-28.8-11.2-46 0.79-4.37 2-8.04 4-12 0.44-0.86 0.87-1.73 1.32-2.62 7.49-13.5 18.8-23 33.7-27.4 12.2-2.87 24.2-2.54 36 2zm-3 18c-7.84 8.76-14 21.2-17.9 32.2-1.9 4.65-5.57 6.07-10 7.97-0.68 0.26-1.35 0.52-2.05 0.78 0.47-0.97 0.95-1.94 1.44-2.94 2.33-5.52 3.59-11.2 1.37-16.9-1.8-3.09-2.83-4.28-5.81-6.12-5.51-1.25-10.3-0.28-15.2 2.38-7.88 5.26-12.9 13.4-14.8 22.6-0.57 5.47 0.36 9.17 3 14 2.98 3.32 4.48 3.93 8.94 4.5 6.61-0.36 10.8-4.86 15.1-9.5 0.56-0.87 1.11-1.73 1.69-2.62 3.45-3.55 7.58-4.27 12.3-5.38-0.52 1.45-0.52 1.45-1.06 2.93-3.65 10.3-6.54 19.3-2.94 30.1 1.7 3.21 1.7 3.21 4.75 3.94 3.31 0.06 5.04-0.32 7.68-2.32 6.44-6.64 12.8-17.4 14.3-26.6 1.25-3.06 1.25-3.06 3.12-3.94 1.57-0.46 3.15-0.9 4.74-1.32 3.83-1.28 6.83-3.68 9.39-6.8 0.71-2.11 0.71-2.11 1-4-2.77 1.13-4.22 2.23-6.31 4.44-3.15 3-5.65 4.06-9.69 5.56 0.03-0.74 0.07-1.47 0.11-2.23 0.18-6.11 0.18-6.11-1.36-12-0.58-0.6-1.16-1.19-1.75-1.81h-4c-2.26 4.41-1.89 7.46-1.25 12.3 1.18 12.2-4.15 22.6-10.3 33-1.75 2.02-2.88 2.37-5.49 2.72-1.59-20.1 10.3-41.1 19.2-58.5 0.39-0.78 0.78-1.57 1.18-2.37 2.56-4.87 5.1-7.97 9.63-11.1h2c-0.46 4.97-1.89 7.19-5 11v4c2.97-0.32 4.55-0.51 6.62-2.74 2.34-3.82 2.39-7.85 2.38-12.3-1-4-1.51-4.67-5-7-4.15 0-6.82 1.48-10 4z" fill="#000001"/>
<path transform="translate(1461,138)" d="m0 0h28v45l13-9c7.54-3.89 15.5-4.21 23.8-2.38 7.07 2.43 11.6 6.79 15.2 13.3 10.3 22.5 3.62 58 2.94 82.1-2.25 0.17-4.5 0.34-6.75 0.5-1.25 0.09-2.51 0.19-3.8 0.28-5.48 0.33-11 0.26-16.4 0.22-0.01-0.7-0.02-1.41-0.02-2.13-0.08-6.68-0.17-13.4-0.27-20-0.05-3.43-0.09-6.86-0.13-10.3-0.05-3.95-0.11-7.91-0.17-11.9-0.01-1.21-0.02-2.43-0.03-3.68 0.29-11.4 0.29-11.4-3.77-21.7-4.06-3.25-8.7-2.61-13.6-2.29l-9 4-1 67c-20.7 1.38-20.7 1.38-27 1-1-1-1-1-1.12-3.14v-2.88-3.29c0-1.8 0-1.8 0.01-3.65v-3.81c0-3.46 0-6.92 0.01-10.4 0-3.61 0.01-7.23 0.01-10.8 0-6.84 0.01-13.7 0.02-20.5 0.01-7.79 0.01-15.6 0.02-23.4 0.01-16 0.03-32.1 0.05-48.1z" fill="#000001"/>
<path transform="translate(478,178)" d="m0 0c6.16 5.71 9.66 11.7 11 20 0.09 2.3 0.12 4.6 0.11 6.9v2.04c0 2.22 0 4.43-0.01 6.64 0 1.54-0.01 3.08-0.01 4.62 0 4.04-0.01 8.09-0.02 12.1-0.01 4.13-0.02 8.26-0.02 12.4-0.01 8.09-0.03 16.2-0.05 24.3-2.36 0.17-4.71 0.33-7.07 0.5-1.31 0.09-2.62 0.18-3.97 0.28-5.33 0.3-10.6 0.31-16 0.22v-10c-1.03 0.8-1.03 0.8-2.09 1.61-9.74 7.32-18 12.1-30.5 11.2-9.19-1.37-14.7-6.39-20.2-13.6-4.59-8.31-4.43-19.1-2.65-28.2 2.63-7.75 8.05-12.4 14.9-16.5 9.5-4.56 20.1-5.34 30.5-6.5 0.87-0.1 1.75-0.2 2.65-0.3 2.11-0.24 4.23-0.47 6.35-0.7-0.27-3.83-0.77-5.71-3.19-8.75-6.92-5.54-15.4-4.95-23.8-4.25-5.43 1.22-10.6 2.97-15.7 5.13-2.32 0.87-2.32 0.87-5.32 0.87v-22c18.4-6.14 47.9-10.6 65 2zm-31.2 46.3c-0.97 0.25-1.95 0.49-2.95 0.74-4.54 1.54-7.18 2.92-9.68 7.07-1.61 4.3-1.25 8.49-0.12 12.9 2.48 3.72 3.72 3.97 8 5 6.97 0.56 12.4-0.59 18.2-4.47 2.82-4 2.2-8.02 2.03-12.8-0.02-0.94-0.04-1.87-0.05-2.84-0.05-2.3-0.12-4.61-0.2-6.91-5.29-0.14-10.1-0.03-15.2 1.31z" fill="#000001"/>
<path transform="translate(1292,174)" d="m0 0h27c0.06 6.21 0.06 6.21 0.11 12.6 0.04 3.33 0.08 6.66 0.13 9.99 0.04 3.5 0.08 7 0.11 10.5 0.03 4.02 0.08 8.05 0.14 12.1 0 1.24 0.01 2.48 0.02 3.75 0.11 6.87 0.29 13.9 3.49 20.1 3.38 2.61 6.35 3.12 10.6 2.82 4.7-0.8 8.61-1.86 12.4-4.82 0.76-2.99 0.76-2.99 0.66-6.49 0.02-0.98 0.02-0.98 0.03-1.98 0.03-2.16 0.02-4.32 0.02-6.48 0.01-1.5 0.03-2.99 0.04-4.49 0.04-3.94 0.05-7.88 0.06-11.8 0.01-4.03 0.04-8.05 0.08-12.1 0.06-7.89 0.09-15.8 0.11-23.7h28v93c-20.7 1.38-20.7 1.38-27 1-2.05-2.05-1.7-6.3-2-9-0.71 0.54-1.43 1.09-2.16 1.64-8.9 6.65-16.2 11.1-27.6 10.1-8.36-1.27-13.5-4.36-18.9-10.9-4.58-6.45-5.45-13.3-5.43-21v-2.13c0-2.31 0-4.62 0.01-6.93 0-1.61 0.01-3.21 0.01-4.82 0-4.22 0.01-8.44 0.02-12.7 0.01-4.31 0.02-8.62 0.02-12.9 0.01-8.45 0.03-16.9 0.05-25.4z" fill="#000001"/>
<path transform="translate(669 178)" d="m0 0c9.42 8.09 12.6 19 14.1 30.9v17h-61c2.62 11.6 2.62 11.6 10.3 19.3 8.69 4.42 20.8 3.6 30.2 1.52 3.93-1.31 7.41-3.29 11-5.4 2.54-1.43 2.54-1.43 7.54-3.43v24c-18.1 7.91-40 11.2-59.1 4.31-11-5.06-19.2-11.8-24.2-23.1-5.26-15-5.24-32.6 1.37-47.2 6.21-12.4 14.2-18.9 27.1-23.8 13.7-3.86 31.1-2.26 42.8 5.94zm-41.9 14.9c-3.72 5.53-5 9.22-5 16h33c1.34-5.36 0.13-8.99-2-14-2.63-3.23-4.07-4.7-8-6-6.57-0.64-13.1-0.99-18 4z" fill="#000001"/>
<path transform="translate(498,174)" d="m0 0h29l18 56c1.86-2.79 2.65-4.72 3.59-7.88 0.3-0.99 0.59-1.99 0.9-3.01 0.31-1.07 0.63-2.13 0.95-3.23 0.33-1.1 0.66-2.2 0.99-3.33 1.05-3.52 2.09-7.03 3.13-10.6 1.05-3.52 2.09-7.03 3.14-10.6 0.65-2.19 1.3-4.37 1.95-6.56 0.29-0.99 0.59-1.99 0.89-3.01 0.26-0.87 0.52-1.74 0.78-2.64 0.53-1.76 1.1-3.5 1.68-5.24h28c-1.12 6.75-1.12 6.75-2.39 10.3-0.28 0.8-0.56 1.59-0.86 2.41-0.31 0.85-0.61 1.71-0.93 2.59-0.33 0.91-0.66 1.83-0.99 2.77-0.72 1.99-1.43 3.98-2.14 5.97-1.94 5.38-3.86 10.8-5.78 16.2-0.4 1.12-0.8 2.25-1.21 3.41-5.26 14.8-10.4 29.6-15.5 44.4-4.61 13.4-9.37 26.7-14.2 40h-30c3.35-11.2 3.35-11.2 5.3-16 0.6-1.52 0.6-1.52 1.21-3.07 0.83-2.08 1.67-4.16 2.53-6.23 0.39-1.02 0.79-2.03 1.19-3.07 0.37-0.9 0.73-1.8 1.1-2.73 1.96-8.7-2.31-17.2-5.21-25.3l-1.5-4.2c-1.3-3.69-2.62-7.36-3.94-11s-2.63-7.36-3.94-11c-6.8-19.1-6.8-19.1-13.9-38.1-1.88-5.03-1.88-5.03-1.88-7.24z" fill="#000001"/>
<path transform="translate(1114,144)" d="m0 0h99v24h-35v99c-9.65 0.69-19.3 1-29 1v-100h-35v-24z" fill="#000001"/>
<path transform="translate(831,177)" d="m0 0v24c-4.69-1.17-8.61-3.26-12.9-5.47-5.68-2.92-9.63-3.7-16-3.78-1.19-0.03-2.38-0.05-3.61-0.08-3.87 0.36-6.24 1.25-9.51 3.33-1.33 2.89-1.33 2.89-1 6 3.31 4.67 7.79 5.29 13.1 6.5 1.72 0.43 3.44 0.86 5.15 1.29 0.83 0.21 1.65 0.41 2.5 0.63 10 2.55 18.2 6.09 23.7 15.2 1.4 3.03 2.25 5.1 2.56 8.38 0.06 0.63 0.13 1.27 0.19 1.92 0.44 7.93-1.92 15.6-6.81 21.9-8.05 8.41-19 12.1-30.4 12.6-2.07 0.03-4.15 0.03-6.23 0.01-1.63-0.01-1.63-0.01-3.3-0.02-10.7-0.19-19.5-2.44-29.4-6.42v-25c9.06 4.44 9.06 4.44 11.9 5.83 11.3 5.43 23.2 5.36 35.1 2.17 0.46-4.54 0.46-4.54-1.12-8.61-2.59-1.91-5.08-2.51-8.19-3.33-1.25-0.34-2.5-0.68-3.78-1.03-2.54-0.68-5.08-1.32-7.63-1.96-9.84-2.58-17.2-5.28-22.8-14.1-3.77-6.63-4.53-13.8-3.04-21.2 2.56-8.71 7.5-14.7 15.2-19.4 17.4-9.21 38.8-6.29 56.4 0.75z" fill="#000001"/>
<path transform="translate(322,144)" d="m0 0h29v101h49v22c-9.52 0.85-18.9 1.14-28.5 1.1-1.26 0-2.53 0-3.83-0.01-4.66 0-9.33-0.01-14-0.03-10.5-0.02-20.9-0.04-31.7-0.06v-124z" fill="#000001"/>
<path transform="translate(1403 147)" d="m0 0h3.53c1.23-0 2.46 0 3.72 0.01 1.84-0.01 1.84-0.01 3.72-0.01h3.53 3.27c2.48 0.13 2.48 0.13 3.48 1.13 0.09 1.93 0.11 3.86 0.1 5.79 0 1.05-0.01 2.1-0.01 3.19-0.01 1.35-0.02 2.7-0.03 4.09-0.02 4.26-0.04 8.53-0.06 12.9h27v20h-27c0.1 6.59 0.2 13.2 0.32 19.8 0.04 2.24 0.07 4.48 0.1 6.72 0.05 3.22 0.11 6.44 0.17 9.67 0.01 0.99 0.02 1.99 0.03 3.02 0.11 4.99 0.42 9.16 2.38 13.8 8.15 1.63 15.8 0.91 24 0v20c-7.66 1.71-13.8 2.37-21.4 2.38-1.07 0.02-2.13 0.05-3.23 0.07-8.48 0.03-15-1.8-22.2-6.2-11.2-11.9-8.37-31.5-8.26-46.5 0.02-2.21 0.02-4.42 0.03-6.63 0.02-5.37 0.06-10.7 0.1-16.1h-10v-20h10c-0.01-0.78-0.01-1.56-0.02-2.37-0.02-3.52-0.03-7.04-0.04-10.6-0.01-1.24-0.02-2.47-0.03-3.74 0-1.17 0-2.34-0.01-3.54 0-1.09-0.01-2.17-0.01-3.29 0.21-4.68 2.76-3.63 6.86-3.63z" fill="#000001"/>
<path transform="translate(1073,138)" d="m0 0c1 1 1 1 1.11 3.04 0 1.31 0 1.31-0.01 2.65-0.01 1.42-0.01 1.42-0.01 2.86-0.01 1.49-0.01 1.49-0.03 3.01 0 1-0.01 2-0.01 3.02-0.01 2.48-0.03 4.95-0.05 7.42-0.6-0.07-1.19-0.14-1.81-0.21-8.21-0.94-15.3-1.49-23.2 1.21-0.99 4.29-1.98 8.58-3 13h22v20h-21v73c-8.06 4.03-18 1-27 1v-74h-11v-20h11c-0.06-1.61-0.12-3.22-0.19-4.88 0.01-9.08 2.31-17 8.72-23.7 11.5-10.7 29.8-10 44.5-7.41z" fill="#000001"/>
<path transform="translate(696,174)" d="m0 0h28c0 11 0 11-1 13 0.92-0.69 1.84-1.37 2.78-2.08l3.72-2.73c0.6-0.45 1.2-0.91 1.82-1.37 8.38-6.11 13.7-6.82 24.7-6.82v27c-8.69-0.19-8.69-0.19-11.3-0.27-7.63-0.08-12.7 1.43-20.7 3.27v63c-20.7 1.38-20.7 1.38-27 1-1.87-1.87-1.12-4.54-1.12-7.03 0-0.86 0-1.73 0.01-2.62v-2.75c0-3.01 0-6.03 0.01-9.04 0-2.09 0.01-4.17 0.01-6.25 0-5.5 0.01-11 0.02-16.5 0.01-5.6 0.02-11.2 0.02-16.8 0.01-11 0.03-22 0.05-33z" fill="#000001"/>
<path transform="translate(1223,174)" d="m0 0h27v13c0.75-0.6 1.5-1.21 2.27-1.83 10.1-7.89 16.4-11.2 29.7-11.2v27c-4.39-0.09-4.39-0.09-8.88-0.19-6.48-0.07-12.2 0.17-18.3 2.53-1.81 0.66-1.81 0.66-4.81 0.66v63c-8.99 0.6-18 1-27 1v-94z" fill="#000001"/>
<path transform="translate(273,51)" d="m0 0h7v347h-7v-347z" fill="#000001"/>
<path transform="translate(132,83)" d="m0 0c2.97 0.33 5.94 0.66 9 1v40h39v10c-12.5 0.33-25.1 0.66-38 1l-1 114h-10v-115c-11.9 0.33-23.8 0.66-36 1-0.99-0.33-1.98-0.66-3-1v-10h39c-0.02-3.61-0.04-7.22-0.06-10.9-0.03-10.1 0.3-20 1.06-30.1z" fill="#000001"/>
<path transform="translate(187,274)" d="m0 0h62v7h-26v73h-20v-73h-13c-3-5-3-5-3-7z" fill="#000001"/>
<path transform="translate(41,261)" d="m0 0h21v73h23c2 4 2 4 2 7h-46v-80z" fill="#000001"/>
<path transform="translate(879,315)" d="m0 0c2.88 2 2.88 2 5 4 0.58-0.29 1.15-0.58 1.75-0.88 1.11-0.55 1.11-0.55 2.25-1.12 0.6-0.39 1.2-0.78 1.81-1.19 3.32-1.23 5.8-0.61 9.19 0.19 2.06 1.58 2.85 2.69 4 5 0.09 2.11 0.11 4.21 0.1 6.32-0.01 1.26-0.01 2.51-0.01 3.81-0.01 1.98-0.01 1.98-0.03 3.99 0 1.34-0.01 2.68-0.01 4.02-0.01 3.29-0.03 6.57-0.05 9.86h-9l-1-24h-6c-1.68 1.68-1.23 3.82-1.32 6.13-0.04 1.03-0.08 2.07-0.12 3.13-0.04 1.09-0.08 2.18-0.12 3.3-0.05 1.09-0.09 2.19-0.13 3.31-0.11 2.71-0.21 5.42-0.31 8.13h-9c-0.5-12.4-0.5-12.4-1-25l-8 1v24h-9v-33h9v3c1.3-0.99 1.3-0.99 2.62-2 3.68-2.18 5.21-2.71 9.38-2z" fill="#000001"/>
<path transform="translate(933,316)" d="m0 0c1.94 1.56 1.94 1.56 3 3 2.97-1.12 5.33-2.22 8-4 2.88-0.44 2.88-0.44 6 0 2.96 2.24 4.69 3.8 5.63 7.44 0.53 5.15 0.47 10.3 0.43 15.4 0 1.06-0.01 2.13-0.01 3.24-0.01 2.62-0.03 5.25-0.05 7.88h-9c-0.03-0.66-0.05-1.31-0.08-1.99-0.11-2.96-0.23-5.92-0.36-8.89-0.04-1.03-0.08-2.06-0.12-3.12-0.04-0.99-0.08-1.98-0.12-2.99-0.04-0.91-0.08-1.82-0.11-2.76-0.08-2.28-0.08-2.28-1.21-4.25-2-0.04-4-0.04-6 0-1.68 1.68-1.23 3.82-1.32 6.13-0.04 1.03-0.08 2.07-0.12 3.13-0.04 1.09-0.08 2.18-0.12 3.3-0.05 1.09-0.09 2.19-0.13 3.31-0.11 2.71-0.21 5.42-0.31 8.13h-8c-0.06-1.15-0.12-2.29-0.18-3.47-0.09-1.53-0.17-3.06-0.26-4.59-0.04-0.75-0.08-1.51-0.12-2.28-0.26-4.61-0.72-9.1-1.44-13.7-2-0.04-4-0.04-6 0-1.68 1.68-1.23 3.82-1.32 6.13-0.04 1.03-0.08 2.07-0.12 3.13-0.04 1.09-0.08 2.18-0.12 3.3-0.05 1.09-0.09 2.19-0.13 3.31-0.11 2.71-0.21 5.42-0.31 8.13h-9v-33h9v3c1.52-1.02 1.52-1.02 3.06-2.06 3.93-2.25 6.53-2.21 10.9-0.94z" fill="#000001"/>
<path transform="translate(1197 316)" d="m0 0c2.34 0.54 4.43 0.58 6.84 0.55 1.19-0.02 1.19-0.02 2.42-0.03 0.9-0.02 0.9-0.02 1.83-0.04 0.07 4.72 0.12 9.43 0.16 14.2l0.06 4.8c0.04 2.31 0.06 4.62 0.07 6.93 0.01 0.71 0.03 1.42 0.05 2.15 0 5.14-1 8.5-3.34 13-4.64 4.21-8.37 4.56-14.3 4.32-0.72-0.01-1.45-0.02-2.2-0.03-5.31-0.12-5.31-0.12-6.48-1.29-0.15-2.67-0.05-5.32 0-8 0.68 0.17 1.36 0.33 2.06 0.5 4.52 0.77 8.57 0.96 12.9-0.5l1-5c-0.5 0.33-0.99 0.66-1.5 1-3.51 1.41-6.81 1.6-10.5 1-4.09-2.39-5.61-4.55-7-9-0.3-3.55-0.3-3.55-0.32-7.43-0.01-1.28-0.03-2.56-0.05-3.87 0.53-5.36 2.05-8.56 6.12-12.1 4.19-2.1 7.62-2.33 12.2-1.11zm-7.85 9.42c-1.43 4.12-1.78 7.75-1.06 12.1 1.42 2.76 1.42 2.76 4 4 3.84-0.09 3.84-0.09 7-2 0.1-2.51 0.13-4.98 0.12-7.5 0-0.7 0.01-1.4 0.01-2.12 0.31-3.48 0.31-3.48-1.13-6.38-4.98-0.67-4.98-0.67-8.94 1.94z" fill="#000001"/>
<path transform="translate(562 316)" d="m0 0c4.03 0.47 8.02 0.42 12.1 0.36 0.08 4.55 0.13 9.11 0.17 13.7 0.01 1.55 0.03 3.09 0.06 4.64 0.28 16.7 0.28 16.7-3.23 22.7-3.91 3.64-7.01 4.46-12.2 4.4-0.71-0.03-1.42-0.06-2.15-0.09-0.73-0.01-1.45-0.02-2.2-0.03-5.32-0.11-5.32-0.11-6.49-1.28-0.14-2.67-0.04-5.32 0-8 0.68 0.16 1.37 0.33 2.07 0.5 4.52 0.77 8.56 0.96 12.9-0.5l1-5c-0.49 0.33-0.99 0.66-1.5 1-3.51 1.4-6.8 1.59-10.5 1-4.08-2.4-5.6-4.56-7-9-0.3-3.56-0.3-3.56-0.31-7.44-0.02-1.28-0.03-2.55-0.05-3.87 0.52-5.24 2.11-8.47 5.86-12.1 4.26-1.9 6.91-1.6 11.4-0.92zm-6.62 9.07c-2.24 3.93-1.95 7.9-1.31 12.3 1.41 2.82 1.41 2.82 4 4 3.85-0.09 3.85-0.09 7-2 0.1-2.51 0.14-4.99 0.13-7.5 0-0.7 0.01-1.41 0.01-2.13 0.31-3.47 0.31-3.47-1.14-6.37-4.81-0.65-4.81-0.65-8.69 1.71z" fill="#000001"/>
<path transform="translate(325,306)" d="m0 0h10c0.01 1.38 0.01 1.38 0.03 2.78 0.04 3.42 0.1 6.83 0.18 10.2 0.03 1.48 0.05 2.96 0.06 4.43 0.02 2.13 0.07 4.25 0.12 6.38 0.02 1.28 0.04 2.55 0.06 3.87 0.63 3.81 1.44 5.07 4.55 7.3 3.13 0.09 3.13 0.09 6-1 2.45-3.68 2.31-5.68 2.41-10.1 0.02-0.69 0.04-1.37 0.06-2.08 0.06-2.18 0.11-4.36 0.15-6.54l0.12-4.44c0.1-3.62 0.18-7.25 0.26-10.9h10c0.07 4.11 0.13 8.21 0.16 12.3 0.02 1.4 0.04 2.79 0.07 4.18 0.29 15.9 0.29 15.9-3.23 22.5-4.29 4.29-7.87 5.16-13.8 5.25-4.82-0.06-8.22-0.27-12.2-3.25-4.73-5.88-5.13-10.7-5.1-18 0-0.66 0.01-1.32 0.01-2 0-2.09 0.01-4.17 0.03-6.26 0-1.43 0.01-2.85 0.01-4.27 0.01-3.47 0.03-6.95 0.05-10.4z" fill="#000001"/>
<path transform="translate(1235 306)" d="m0 0c1.08 0.01 2.17 0.01 3.28 0.02 1.76 0 1.76 0 3.55 0.01 1.85 0.01 1.85 0.01 3.73 0.02 1.86 0.01 1.86 0.01 3.75 0.01 3.06 0.02 6.13 0.03 9.19 0.05v8c-7.92 0.5-7.92 0.5-16 1l-1 6h16v9h-16v11h17v8h-27c-0.02-5.96-0.04-11.9-0.06-17.9 0-2.03-0.01-4.06-0.02-6.09-0.01-2.91-0.01-5.82-0.02-8.73 0-0.91-0.01-1.83-0.01-2.77 0-2.17 0.05-4.34 0.11-6.52 1-1 1-1 3.5-1.11z" fill="#000001"/>
<path transform="translate(624 306)" d="m0 0c1.36 0.74 1.36 0.74 2.75 1.5v12c-1.79-1.21-1.79-1.21-3.63-2.44-3.49-2.15-6.16-3.65-10.4-3.56-3.32 1.66-5.39 3.03-7.37 6.19-1.19 5.34-1.27 10 0.56 15.2 2.08 3.01 3.39 4.3 6.81 5.62 5.4-0.1 8.02-1.47 12-5h2v11c-6.76 3.69-13.9 4.34-21.4 2.38-5.41-2.3-8.23-6.11-10.6-11.4-2.31-7.15-1.83-16 0.81-23 5.84-10 17.9-13.1 28.4-8.54z" fill="#000001"/>
<path transform="translate(633,304)" d="m0 0h9l1 14 5-3c3.13-0.29 5.98 0.14 9 1 2.99 2.61 3.38 5.19 4 9 0.08 1.91 0.11 3.83 0.1 5.74-0.01 1.06-0.01 2.13-0.01 3.23-0.01 1.1-0.02 2.21-0.03 3.34 0 1.12-0.01 2.25-0.01 3.4-0.01 2.77-0.03 5.53-0.05 8.29h-9c-0.06-1.48-0.12-2.96-0.18-4.49-0.09-1.94-0.17-3.88-0.26-5.82-0.04-0.98-0.08-1.96-0.12-2.96-0.04-0.94-0.08-1.88-0.12-2.84-0.04-0.87-0.08-1.73-0.11-2.62-0.14-2.43-0.14-2.43-1.21-5.27h-8v24h-9v-45z" fill="#000001"/>
<path transform="translate(816 306)" d="m0 0c0.93 0.5 1.86 0.99 2.81 1.5v11c-1.52-0.85-3.05-1.69-4.62-2.56-3.39-1.7-4.97-2.45-8.81-2.32-0.85 0.29-1.7 0.58-2.57 0.88-0.99 0.33-1.98 0.66-3 1-2.78 5.41-2.74 12.1-2 18 1.51 3.06 2.37 4.63 5.31 6.38 6.28 1.45 10.5-1.17 15.7-4.38v11c-6.24 3.41-12 3.71-19 3-5.22-1.71-7.81-4.58-11-9-3.46-6.86-3.1-16.6-1.27-23.9 2.24-5.45 5.19-8.66 10.6-11.2 5.73-1.97 12.3-1.82 17.9 0.58z" fill="#000001"/>
<path transform="translate(1528 316)" d="m0 0c3.76 2.45 5.28 4.52 6.69 8.75v10c-9.9 0.5-9.9 0.5-20 1 2.39 5.29 2.39 5.29 6.69 6 4.66 0.34 8.09-1.12 12.3-3 1 1 1 1 1.06 4.56-0.02 1.14-0.04 2.27-0.06 3.44-5.82 3.99-12.2 3.77-19 3-3.94-1.25-6.37-3.16-8.88-6.5-2.74-6.09-3.05-12.3-1-18.7 1.75-4.22 4.14-6.24 7.88-8.81 5.08-1.69 9.37-1.61 14.3 0.25zm-13.2 8.19c-1.19 2.25-1.19 2.25-1.12 3.56h12c-0.63-3.97-0.63-3.97-3-6-4.66-0.72-4.66-0.72-7.88 2.44z" fill="#000001"/>
<path transform="translate(1307 316)" d="m0 0c3.51 2.36 4.9 4.73 6.38 8.62 0.48 3.37 0.31 6.8 0.31 10.2h-21c3.11 5.79 3.11 5.79 5.93 6.91 4.9 0.39 7.73-0.33 12.1-2.91h2v9c-6.28 2.92-13.6 3.21-20.3 1.39-4.12-2.02-6.32-5.03-8.09-9.11-1.6-5.58-1.15-10.6 0.47-16.1 4.96-8.43 13-11.3 22.2-8zm-13.2 7.69c-1.28 2.02-1.28 2.02-1.12 4.12h12c-1.46-4.58-1.46-4.58-3-6-4.42-0.55-4.42-0.55-7.88 1.88z" fill="#000001"/>
<path transform="translate(1096 316)" d="m0 0c2.59 1.81 3.89 3.05 5.5 5.75 0.34 2.93 0.34 2.93 0.29 6.3-0.01 1.2-0.02 2.41-0.03 3.65-0.02 1.25-0.05 2.51-0.07 3.8-0.02 1.9-0.02 1.9-0.04 3.85-0.04 3.13-0.09 6.27-0.15 9.4h-9l-1-2c-0.68 0.5-1.36 0.99-2.06 1.5-3.66 1.87-5.87 2.01-9.94 1.5-2.75-1.8-4.53-3.05-6-6-0.54-4.51-0.6-7.95 1.69-11.9 5.09-4.54 10.8-4.58 17.3-5.06l-2-3c-3.36-0.37-3.36-0.37-7.12-0.19-1.29 0.03-2.57 0.06-3.89 0.08-1.48 0.06-1.48 0.06-2.99 0.11v-8c6.54-1.47 13.1-2.03 19.5 0.25zm-13.5 20.8 1 5c2.98 0.91 4.43 1.26 7.31-0.06 2.01-1.91 2.01-1.91 1.94-5.13-0.12-1.39-0.12-1.39-0.25-2.81-4.27-0.37-6.49 0.59-10 3z" fill="#000001"/>
<path transform="translate(1399,318)" d="m0 0c3.19 3.33 3.36 5.76 3.29 10.3-0.01 1.2-0.02 2.41-0.03 3.65-0.02 1.25-0.05 2.51-0.07 3.8-0.02 1.9-0.02 1.9-0.04 3.85-0.04 3.13-0.09 6.27-0.15 9.4h-9l-1-2c-0.68 0.5-1.36 0.99-2.06 1.5-3.66 1.87-5.87 2.01-9.94 1.5-3.39-2.14-4.73-3.18-6-7-0.37-4.95-0.31-8.16 3-12 5.2-2.91 10.1-3.61 16-4l-2-3c-2.3-0.4-2.3-0.4-4.88-0.25-0.86 0.02-1.72 0.03-2.61 0.05-2.79 0.15-2.79 0.15-6.51 1.2v-9c7.55-1.59 15.4-2.53 22 2zm-16 19 1 5c2.91 0.81 4.46 1.22 7.31 0.06 0.56-0.35 1.12-0.7 1.69-1.06v-7c-4.27-0.37-6.49 0.59-10 3z" fill="#000001"/>
<path transform="translate(456,318)" d="m0 0c3.96 5.28 3.23 10.7 3 17h-20c1.4 4.9 1.4 4.9 4.12 6.38 5.58 1.21 10.8 0.02 15.9-2.38v9c-6.72 2.99-14.6 3.16-21.5 0.81-3.77-2.73-6.03-5.39-7.5-9.81-0.67-7.45-0.54-13.8 4-20 5.94-5.76 15.4-5.59 22-1zm-15.9 5.31c-1.4 1.77-1.4 1.77-1.12 4.69h12c-1.45-4.58-1.45-4.58-3-6-4.19-0.41-4.19-0.41-7.88 1.31z" fill="#000001"/>
<path transform="translate(847 316)" d="m0 0c3.97 2.65 5.91 5.95 7.19 10.5 0.99 7.06 0.35 13.2-4 19-3.64 3.55-6.57 4.29-11.5 4.5-4.94-0.21-7.87-0.95-11.5-4.5-4.35-5.8-5-11.9-4-19 1.28-4.55 3.22-7.85 7.19-10.5 5.42-2.6 11.2-2.6 16.6 0zm-12.5 7.68c-2.53 3.48-2.43 7.64-2.32 11.8 0.9 3.56 0.9 3.56 3 6 2.38 1.24 2.38 1.24 5 1 2.43-1.28 3.66-2.21 4.75-4.75 0.58-5.25 0.58-9.44-1.75-14.2-4.53-1.23-4.53-1.23-8.68 0.18z" fill="#000001"/>
<path transform="translate(1018,315)" d="m0 0c2.7 1.8 4.54 3.08 6 6 0.09 2.11 0.11 4.21 0.1 6.32-0.01 1.26-0.01 2.51-0.01 3.81-0.01 1.32-0.02 2.64-0.03 3.99 0 1.34-0.01 2.68-0.01 4.02-0.01 3.29-0.03 6.57-0.05 9.86h-9c-0.03-0.69-0.05-1.38-0.08-2.1-0.11-3.11-0.23-6.22-0.36-9.34-0.04-1.09-0.08-2.17-0.12-3.3-0.04-1.03-0.08-2.07-0.12-3.13-0.04-0.96-0.08-1.92-0.11-2.91 0.03-2.19 0.03-2.19-1.21-3.22-3-0.17-3-0.17-6 0-1.68 1.68-1.23 3.82-1.32 6.13-0.04 1.03-0.08 2.07-0.12 3.13-0.04 1.09-0.08 2.18-0.12 3.3-0.05 1.09-0.09 2.19-0.13 3.31-0.11 2.71-0.21 5.42-0.31 8.13h-9v-33h9v3c1.03-0.66 2.06-1.32 3.12-2 3.47-1.96 5.85-2.7 9.88-2z" fill="#000001"/>
<path transform="translate(387,315)" d="m0 0c2.7 1.8 4.54 3.08 6 6 0.09 2.11 0.11 4.21 0.1 6.32-0.01 1.26-0.01 2.51-0.01 3.81-0.01 1.32-0.02 2.64-0.03 3.99 0 1.34-0.01 2.68-0.01 4.02-0.01 3.29-0.03 6.57-0.05 9.86h-9c-0.03-0.69-0.05-1.38-0.08-2.1-0.11-3.11-0.23-6.22-0.36-9.34-0.04-1.09-0.08-2.17-0.12-3.3-0.04-1.03-0.08-2.07-0.12-3.13-0.04-0.96-0.08-1.92-0.11-2.91 0.03-2.19 0.03-2.19-1.21-3.22-3-0.17-3-0.17-6 0-1.68 1.68-1.23 3.82-1.32 6.13-0.04 1.03-0.08 2.07-0.12 3.13-0.04 1.09-0.08 2.18-0.12 3.3-0.05 1.09-0.09 2.19-0.13 3.31-0.11 2.71-0.21 5.42-0.31 8.13h-9v-33h9v3c1.03-0.66 2.06-1.32 3.12-2 3.47-1.96 5.85-2.7 9.88-2z" fill="#000001"/>
<path transform="translate(534,315)" d="m0 0c3.46 2.71 5.27 4.69 6 9 0.08 1.95 0.11 3.91 0.1 5.86-0.01 1.11-0.01 2.23-0.01 3.38-0.01 1.16-0.02 2.32-0.03 3.51 0 1.17-0.01 2.35-0.01 3.56-0.01 2.9-0.03 5.79-0.05 8.69h-9c-0.03-0.66-0.05-1.31-0.08-1.99-0.11-2.96-0.23-5.92-0.36-8.89-0.04-1.03-0.08-2.06-0.12-3.12-0.04-0.99-0.08-1.98-0.12-2.99-0.04-0.91-0.08-1.82-0.11-2.76-0.08-2.28-0.08-2.28-1.21-4.25h-8v24h-9v-33h9l1 2c0.68-0.5 1.36-0.99 2.06-1.5 3.69-1.88 5.85-2.08 9.94-1.5z" fill="#000001"/>
<path transform="translate(1169,315)" d="m0 0c3.1 2.55 4.73 4.18 6 8 0.08 1.99 0.11 3.99 0.1 5.98-0.01 1.16-0.01 2.33-0.01 3.53-0.01 1.21-0.02 2.43-0.03 3.68 0 1.22-0.01 2.45-0.01 3.71-0.01 3.04-0.03 6.07-0.05 9.1h-9c-0.03-0.66-0.05-1.31-0.08-1.99-0.11-2.96-0.23-5.92-0.36-8.89-0.04-1.03-0.08-2.06-0.12-3.12-0.04-0.99-0.08-1.98-0.12-2.99-0.04-0.91-0.08-1.82-0.11-2.76-0.08-2.28-0.08-2.28-1.21-4.25h-8v24h-9v-33h9v3c1.03-0.66 2.06-1.32 3.12-2 3.47-1.95 5.85-2.79 9.88-2z" fill="#000001"/>
<path transform="translate(961,316)" d="m0 0h9c0.02 0.65 0.04 1.3 0.06 1.97 0.1 2.95 0.2 5.9 0.32 8.84 0.03 1.03 0.06 2.05 0.09 3.11 0.04 0.98 0.08 1.96 0.12 2.97 0.03 0.91 0.06 1.82 0.09 2.75 0.18 2.63 0.18 2.63 2.32 5.36 1.98-0.33 3.96-0.66 6-1l1-24h9v33h-9l-1-2-1.5 1.5c-3.45 2.07-6.63 2.33-10.5 1.5-3.51-2.69-5.26-4.68-6-9-0.08-1.95-0.11-3.91-0.1-5.86 0.01-1.11 0.01-2.23 0.01-3.38 0.01-1.16 0.02-2.32 0.03-3.51 0-1.17 0.01-2.35 0.01-3.56 0.01-2.9 0.03-5.79 0.05-8.69z" fill="#000001"/>
<path transform="translate(729,317)" d="m0 0v9c-0.64-0.33-1.28-0.66-1.94-1-4.07-1.33-7.81-1.17-12.1-1v2c0.75 0.23 1.5 0.46 2.27 0.7 7.96 2.64 7.96 2.64 11.4 5.61 1.72 3.52 1.79 5.82 1.31 9.69-1.34 3.27-2.6 4.71-5.44 6.81-5.13 1.71-10.2 1.93-15.6 1.19-2.87-1.52-2.87-1.52-5-3l1-8c1.18 0.52 2.35 1.03 3.56 1.56 4.28 1.63 7.02 1.45 11.4 0.44v-3c-0.66-0.09-1.33-0.17-2.01-0.26-4.32-0.69-7.42-1.37-11.1-3.8-2.58-4.04-2.79-7.27-1.88-11.9 1.76-3.06 3.19-4.51 6.19-6.31 6.21-1.52 11.9-1.12 17.8 1.31z" fill="#000001"/>
<path transform="translate(1363,315)" d="m0 0c2.53 0.84 3.63 1.44 5.1 3.67 1.18 3.05 1.13 5.58 1.1 8.85-0.01 1.25-0.02 2.5-0.02 3.78-0.02 1.31-0.04 2.61-0.06 3.95 0 1.32-0.01 2.63-0.02 3.99-0.03 3.25-0.06 6.51-0.1 9.76h-8c-0.06-1.13-0.12-2.27-0.18-3.44-0.09-1.52-0.17-3.04-0.26-4.56-0.04-0.74-0.08-1.49-0.12-2.25-0.28-4.96-0.78-9.83-1.44-14.8l-8 1-1 24h-8v-33h9l1 2c0.7-0.5 1.4-0.99 2.12-1.5 3.32-1.73 5.18-1.89 8.88-1.5z" fill="#000001"/>
<path transform="translate(1442,306)" d="m0 0h9v35h17v8c-4.31 0.03-8.62 0.05-12.9 0.06-1.23 0.01-2.46 0.02-3.73 0.03-1.17 0-2.34 0-3.54 0.01-1.63 0.01-1.63 0.01-3.29 0.01-2.5-0.11-2.5-0.11-3.5-1.11-0.1-3.02-0.14-6.01-0.13-9.03 0-0.91 0-1.81-0.01-2.75 0-1.92 0.01-3.84 0.01-5.76 0-2.95 0-5.9-0.01-8.85 0-1.86 0.01-3.72 0.01-5.58 0-0.89-0.01-1.78-0.01-2.69 0.03-6.23 0.03-6.23 1.14-7.34z" fill="#000001"/>
<path transform="translate(397,316)" d="m0 0h9c2.47 6.23 4.32 12.5 6 19 2.27-3.41 3.09-6.71 4.06-10.6 1.82-7.26 1.82-7.26 2.94-8.38 3-0.14 6-0.04 9 0-1.48 7.41-3.69 14.4-6.12 21.6-0.38 1.11-0.75 2.21-1.13 3.35-0.92 2.7-1.83 5.39-2.75 8.09h-11c-1.43-4.22-2.85-8.43-4.27-12.6-0.49-1.44-0.97-2.87-1.46-4.31-0.7-2.06-1.39-4.12-2.08-6.18-0.42-1.25-0.84-2.49-1.27-3.77-0.92-3.09-0.92-3.09-0.92-6.09z" fill="#000001"/>
<path transform="translate(735,307)" d="m0 0h9v9h9v8h-9l1 17c4.64 1.1 4.64 1.1 8 1 0.04 2.33 0.04 4.67 0 7-1.79 1.79-4.32 1.3-6.75 1.38-1.05 0.04-2.09 0.09-3.17 0.14-3.08-0.52-3.08-0.52-5.95-2.37-3.11-4.6-2.68-8.55-2.44-14 0.02-0.98 0.04-1.96 0.07-2.97 0.05-2.41 0.14-4.81 0.24-7.22h-4v-8h4v-9z" fill="#000001"/>
<path transform="translate(1109,307)" d="m0 0h9v9h9c0.04 2.33 0.04 4.67 0 7l-1 1h-8l1 17c4.64 1.1 4.64 1.1 8 1 0.04 2.33 0.04 4.67 0 7-1.79 1.79-4.32 1.3-6.75 1.38-1.05 0.04-2.09 0.09-3.17 0.14-3.08-0.52-3.08-0.52-5.95-2.37-3.11-4.6-2.68-8.55-2.44-14 0.02-0.98 0.04-1.96 0.07-2.97 0.05-2.41 0.14-4.81 0.24-7.22h-4v-8h4v-9z" fill="#000001"/>
<path transform="translate(1500 304)" d="m0 0c1.1 0.01 2.19 0.02 3.32 0.03 0.84 0.01 1.69 0.02 2.56 0.03v8c-1.12-0.06-2.23-0.12-3.38-0.18-1.79 0.09-1.79 0.09-3.62 0.18-1 1.49-1 1.49-2 3 2.3 0.33 4.61 0.66 7 1v8h-7v25h-9v-25h-4v-8h4c-0.09-0.88-0.17-1.77-0.26-2.68 0.31-4.04 1.48-5.46 4.26-8.32 2.76-1.38 5.04-1.09 8.12-1.06z" fill="#000001"/>
<path transform="translate(1264,307)" d="m0 0h9v9h9v8h-9c0.11 2.63 0.24 5.25 0.38 7.88 0.03 0.74 0.06 1.49 0.09 2.26 0.09 4.39 0.09 4.39 2.53 7.86 3.08 0.17 3.08 0.17 6 0v8c-10.9 0.62-10.9 0.62-15.2-1.75-2.71-3.36-2.94-6.35-2.91-10.6 0.01-0.8 0.01-1.6 0.01-2.42 0.01-0.82 0.02-1.65 0.03-2.5 0-0.84 0.01-1.68 0.01-2.55 0.01-2.06 0.03-4.13 0.05-6.2h-3v-8h3v-9z" fill="#000001"/>
<path transform="translate(1072,317)" d="m0 0v10c-0.85-0.5-1.69-0.99-2.56-1.5-3.87-1.69-6.27-2.05-10.4-1.5-2.1 2.13-2.92 3.51-3.4 6.47 0.01 0.86 0.02 1.71 0.02 2.59 0 0.86-0.01 1.72-0.02 2.6 0.48 2.8 1.16 3.65 3.4 5.34 3.7 1.13 5.28 1.37 8.75-0.44 0.74-0.51 1.48-1.03 2.25-1.56h2v9c-5.36 2.42-10.2 2.71-16 2-3.5-1.81-3.5-1.81-6-4-0.58-0.43-1.15-0.87-1.75-1.31-3.84-5.18-3.51-11-2.79-17.1 0.95-4.55 3.16-7.34 6.54-10.4 6.22-3.69 13.5-2.78 20-0.19z" fill="#000001"/>
<path transform="translate(177,261)" d="m0 0h72v7c-8.65 0.12-17.3 0.2-26 0.26-4.01 0.03-8.03 0.06-12 0.12-3.87 0.05-7.75 0.08-11.6 0.09-1.48 0.01-2.96 0.03-4.43 0.06-2.08 0.04-4.15 0.04-6.22 0.04-1.18 0.01-2.36 0.02-3.58 0.03-4.07-0.78-5.58-2.41-8.14-5.6v-2z" fill="#000002"/>
<path transform="translate(1409,304)" d="m0 0h9v45h-9v-45z" fill="#000002"/>
<path transform="translate(480,304)" d="m0 0h9v45h-9v-45z" fill="#000001"/>
<path transform="translate(41,347)" d="m0 0c7.44-0.13 14.9-0.21 22.3-0.27 2.53-0.03 5.06-0.06 7.59-0.11 3.64-0.06 7.28-0.09 10.9-0.11 1.13-0.02 2.26-0.05 3.42-0.08 8.78 0 8.78 0 12.5 2.98 2.24 2.59 2.24 2.59 2.24 4.59h-59v-7z" fill="#000002"/>
<path transform="translate(1319,316)" d="m0 0h9v4c1.07-0.66 2.14-1.32 3.25-2 3.06-1.88 3.88-2 7.75-2v9l-11 1v23h-9v-33z" fill="#000002"/>
<path transform="translate(668,316)" d="m0 0h8v4c1.07-0.66 2.14-1.32 3.25-2 3.06-1.88 3.88-2 7.75-2v9l-10 1-1 23h-8v-33z" fill="#000001"/>
<path transform="translate(112,293)" d="m0 0c1 2 1 2 0.37 4.14-0.31 0.84-0.62 1.68-0.93 2.55-1.49 4.76-1.71 7.68 0.56 12.3 2.48 1.97 2.48 1.97 5 3-1.5 5.35-5.17 9.14-9 13-2.76 1.38-4.95 1.19-8 1-2-2-2-2-2.44-5.81 0.31-11.2 6.63-22.4 14.4-30.2z" fill="#000001"/>
<path transform="translate(1472,316)" d="m0 0h9v33h-9v-33z" fill="#000001"/>
<path transform="translate(1031,316)" d="m0 0h9v33h-9v-33z" fill="#000002"/>
<path transform="translate(690,316)" d="m0 0h9v33h-9v-33z" fill="#000002"/>
<path transform="translate(464,316)" d="m0 0h9v33h-9v-33z" fill="#000001"/>
<path transform="translate(496,316)" d="m0 0h8v33h-8c-0.69-7.76-1.11-15.5-1.12-23.2-0.01-0.74-0.01-1.48-0.02-2.24 0.02-5.26 0.02-5.26 1.14-7.51z" fill="#000001"/>
<path transform="translate(1131,316)" d="m0 0h8v33h-8v-33z" fill="#000002"/>
<path transform="translate(123,291)" d="m0 0c1.97 7.05-0.24 13.4-3 20-1.64 1.89-1.64 1.89-3 3-2-1.38-2-1.38-4-4-0.96-5.93-0.34-10.9 3-16 2.43-3.17 2.67-3 7-3z" fill="#000001"/>
<path transform="translate(758,338)" d="m0 0h9c-0.7 4.93-2.64 9.26-4.56 13.8-0.33 0.79-0.66 1.58-1 2.39-0.81 1.94-1.62 3.87-2.44 5.8h-6c0.64-3.1 1.29-6.21 1.94-9.31 0.18-0.88 0.36-1.76 0.55-2.67 0.18-0.85 0.35-1.7 0.54-2.57 0.24-1.17 0.24-1.17 0.49-2.37 0.48-2.08 0.48-2.08 1.48-5.08z" fill="#000001"/>
<path transform="translate(1541,338)" d="m0 0h9v11h-9v-11z" fill="#000001"/>
<path transform="translate(1471,303)" d="m0 0h10v8h-10v-8z" fill="#000001"/>
<path transform="translate(1130,303)" d="m0 0h10v8h-10v-8z" fill="#000001"/>
<path transform="translate(495,303)" d="m0 0h10v8h-10v-8z" fill="#000002"/>
<path transform="translate(463,303)" d="m0 0h10v8h-10v-8z" fill="#000001"/>
<path transform="translate(1031,303)" d="m0 0h9v8h-9v-8z" fill="#000002"/>
<path transform="translate(690,303)" d="m0 0h9v8h-9v-8z" fill="#000002"/>
<path transform="translate(1326,321)" d="m0 0h9v3c-3.16 0.84-5.73 1-9 1v-4z" fill="#000100"/>
<path transform="translate(152,303)" d="m0 0h1v8h-1v-8z" fill="#000002"/>
</svg>
